<svg xmlns="http://www.w3.org/2000/svg" viewBox="0 0 220 220" role="img" aria-label="Een stoere, vriendelijke feniks">
  <defs>
    <linearGradient id="fire" x1="0" y1="0" x2="1" y2="1"><stop stop-color="#ffd34d"/><stop offset=".48" stop-color="#ff8a2a"/><stop offset="1" stop-color="#e5452f"/></linearGradient>
    <linearGradient id="wing" x1="0" y1="0" x2="1" y2="1"><stop stop-color="#ffb52e"/><stop offset="1" stop-color="#d73832"/></linearGradient>
  </defs>
  <path d="M103 170C83 183 80 202 83 214c11-10 21-13 29-12 8-9 15-20 12-34z" fill="#f04d2e"/>
  <path d="M117 169c18 15 22 31 19 45-9-9-18-13-27-12-6-10-11-21-8-34z" fill="#ff9b2c"/>
  <path d="M94 163c-27 6-50-2-72-20 19-1 31-5 39-12-20-8-33-20-42-37 27 8 48 9 63 2z" fill="url(#wing)" stroke="#ffca45" stroke-width="4" stroke-linejoin="round"/>
  <path d="M126 163c27 6 50-2 72-20-19-1-31-5-39-12 20-8 33-20 42-37-27 8-48 9-63 2z" fill="url(#wing)" stroke="#ffca45" stroke-width="4" stroke-linejoin="round"/>
  <path d="M78 105c0-33 14-58 32-58s32 25 32 58v52c0 20-14 34-32 34s-32-14-32-34z" fill="url(#fire)" stroke="#ffe37a" stroke-width="5"/>
  <path d="M89 58c0-20 9-35 21-44 0 14 5 22 13 30 1-14 8-23 17-29-1 20-7 34-20 45z" fill="#ff6b2e" stroke="#ffd04a" stroke-width="4" stroke-linejoin="round"/>
  <path d="M98 101c4-5 10-5 14 0M121 101c4-5 10-5 14 0" fill="none" stroke="#17263d" stroke-width="5" stroke-linecap="round"/>
  <circle cx="105" cy="106" r="3" fill="#17263d"/><circle cx="128" cy="106" r="3" fill="#17263d"/>
  <path d="M111 119l17 7-17 8z" fill="#ffe36a" stroke="#c96c27" stroke-width="3" stroke-linejoin="round"/>
  <path d="M96 146c9 8 19 8 28 0" fill="none" stroke="#b53632" stroke-width="5" stroke-linecap="round"/>
  <path d="M73 112l-21 24 28-8M147 112l21 24-28-8" fill="none" stroke="#ffd34d" stroke-width="5" stroke-linecap="round" stroke-linejoin="round"/>
</svg>
